<mxfile host="app.diagrams.net" agent="Mozilla/5.0 (Macintosh; Intel Mac OS X 10_15_7) AppleWebKit/605.1.15 (KHTML, like Gecko) Version/26.0 Safari/605.1.15" version="28.2.8">
  <diagram name="Pagina-1" id="i4vUucBE3wJFT6LZ-Kjz">
    <mxGraphModel dx="946" dy="530" grid="1" gridSize="10" guides="1" tooltips="1" connect="1" arrows="1" fold="1" page="1" pageScale="1" pageWidth="1169" pageHeight="827" math="0" shadow="0">
      <root>
        <mxCell id="0" />
        <mxCell id="1" parent="0" />
        <mxCell id="4_c2I07eRdUUCUkFkbuC-1" value="MENU DEL GIORNO" style="rounded=0;whiteSpace=wrap;html=1;" parent="1" vertex="1">
          <mxGeometry x="462" y="329" width="120" height="60" as="geometry" />
        </mxCell>
        <mxCell id="4_c2I07eRdUUCUkFkbuC-3" value="E" style="rhombus;whiteSpace=wrap;html=1;" parent="1" vertex="1">
          <mxGeometry x="482" y="199" width="80" height="80" as="geometry" />
        </mxCell>
        <mxCell id="4_c2I07eRdUUCUkFkbuC-4" value="" style="endArrow=none;html=1;rounded=0;exitX=0.5;exitY=0;exitDx=0;exitDy=0;" parent="1" source="4_c2I07eRdUUCUkFkbuC-1" target="4_c2I07eRdUUCUkFkbuC-3" edge="1">
          <mxGeometry width="50" height="50" relative="1" as="geometry">
            <mxPoint x="502" y="389" as="sourcePoint" />
            <mxPoint x="552" y="339" as="targetPoint" />
          </mxGeometry>
        </mxCell>
        <mxCell id="4_c2I07eRdUUCUkFkbuC-5" value="MENU" style="rounded=0;whiteSpace=wrap;html=1;" parent="1" vertex="1">
          <mxGeometry x="462" y="89" width="120" height="60" as="geometry" />
        </mxCell>
        <mxCell id="4_c2I07eRdUUCUkFkbuC-7" value="" style="endArrow=none;html=1;rounded=0;exitX=0.5;exitY=0;exitDx=0;exitDy=0;" parent="1" edge="1">
          <mxGeometry width="50" height="50" relative="1" as="geometry">
            <mxPoint x="521.5" y="199" as="sourcePoint" />
            <mxPoint x="521.5" y="149" as="targetPoint" />
          </mxGeometry>
        </mxCell>
        <mxCell id="4_c2I07eRdUUCUkFkbuC-8" value="" style="endArrow=classic;html=1;rounded=0;" parent="1" edge="1">
          <mxGeometry width="50" height="50" relative="1" as="geometry">
            <mxPoint x="592" y="159" as="sourcePoint" />
            <mxPoint x="502" y="159" as="targetPoint" />
          </mxGeometry>
        </mxCell>
        <mxCell id="4_c2I07eRdUUCUkFkbuC-10" value="" style="ellipse;whiteSpace=wrap;html=1;" parent="1" vertex="1">
          <mxGeometry x="602" y="99" width="10" height="10" as="geometry" />
        </mxCell>
        <mxCell id="4_c2I07eRdUUCUkFkbuC-13" value="" style="endArrow=none;html=1;rounded=0;exitX=1;exitY=0.25;exitDx=0;exitDy=0;entryX=0;entryY=0.5;entryDx=0;entryDy=0;" parent="1" source="4_c2I07eRdUUCUkFkbuC-5" target="4_c2I07eRdUUCUkFkbuC-10" edge="1">
          <mxGeometry width="50" height="50" relative="1" as="geometry">
            <mxPoint x="562" y="179" as="sourcePoint" />
            <mxPoint x="612" y="129" as="targetPoint" />
          </mxGeometry>
        </mxCell>
        <mxCell id="4_c2I07eRdUUCUkFkbuC-28" value="Disponibile" style="text;html=1;whiteSpace=wrap;strokeColor=none;fillColor=none;align=center;verticalAlign=middle;rounded=0;" parent="1" vertex="1">
          <mxGeometry x="622" y="89" width="60" height="30" as="geometry" />
        </mxCell>
        <mxCell id="4_c2I07eRdUUCUkFkbuC-29" value="" style="ellipse;whiteSpace=wrap;html=1;" parent="1" vertex="1">
          <mxGeometry x="602" y="119" width="10" height="10" as="geometry" />
        </mxCell>
        <mxCell id="4_c2I07eRdUUCUkFkbuC-30" value="Tipo" style="text;html=1;whiteSpace=wrap;strokeColor=none;fillColor=none;align=center;verticalAlign=middle;rounded=0;" parent="1" vertex="1">
          <mxGeometry x="602" y="109" width="60" height="30" as="geometry" />
        </mxCell>
        <mxCell id="4_c2I07eRdUUCUkFkbuC-32" value="" style="endArrow=none;html=1;rounded=0;" parent="1" edge="1">
          <mxGeometry width="50" height="50" relative="1" as="geometry">
            <mxPoint x="592" y="159" as="sourcePoint" />
            <mxPoint x="592" y="99" as="targetPoint" />
          </mxGeometry>
        </mxCell>
        <mxCell id="4_c2I07eRdUUCUkFkbuC-33" value="" style="endArrow=none;html=1;rounded=0;exitX=1;exitY=0.25;exitDx=0;exitDy=0;entryX=0;entryY=0.5;entryDx=0;entryDy=0;" parent="1" edge="1">
          <mxGeometry width="50" height="50" relative="1" as="geometry">
            <mxPoint x="582" y="123.83" as="sourcePoint" />
            <mxPoint x="602" y="123.83" as="targetPoint" />
          </mxGeometry>
        </mxCell>
        <mxCell id="4_c2I07eRdUUCUkFkbuC-37" value="STUDENTE" style="rounded=0;whiteSpace=wrap;html=1;" parent="1" vertex="1">
          <mxGeometry x="162" y="569" width="120" height="60" as="geometry" />
        </mxCell>
        <mxCell id="4_c2I07eRdUUCUkFkbuC-38" value="EFFETTUA" style="rhombus;whiteSpace=wrap;html=1;" parent="1" vertex="1">
          <mxGeometry x="182" y="439" width="80" height="80" as="geometry" />
        </mxCell>
        <mxCell id="4_c2I07eRdUUCUkFkbuC-41" value="" style="endArrow=none;html=1;rounded=0;exitX=0.5;exitY=0;exitDx=0;exitDy=0;" parent="1" edge="1">
          <mxGeometry width="50" height="50" relative="1" as="geometry">
            <mxPoint x="221.5" y="439" as="sourcePoint" />
            <mxPoint x="221.5" y="389" as="targetPoint" />
          </mxGeometry>
        </mxCell>
        <mxCell id="4_c2I07eRdUUCUkFkbuC-42" value="ORDINE" style="rounded=0;whiteSpace=wrap;html=1;" parent="1" vertex="1">
          <mxGeometry x="162" y="329" width="120" height="60" as="geometry" />
        </mxCell>
        <mxCell id="4_c2I07eRdUUCUkFkbuC-43" value="CONTIENE" style="rhombus;whiteSpace=wrap;html=1;" parent="1" vertex="1">
          <mxGeometry x="332" y="319" width="80" height="80" as="geometry" />
        </mxCell>
        <mxCell id="4_c2I07eRdUUCUkFkbuC-46" value="" style="endArrow=none;html=1;rounded=0;fontStyle=1" parent="1" edge="1">
          <mxGeometry width="50" height="50" relative="1" as="geometry">
            <mxPoint x="332" y="358.71000000000004" as="sourcePoint" />
            <mxPoint x="282" y="358.71000000000004" as="targetPoint" />
          </mxGeometry>
        </mxCell>
        <mxCell id="4_c2I07eRdUUCUkFkbuC-48" value="" style="endArrow=none;html=1;rounded=0;exitX=0.5;exitY=0;exitDx=0;exitDy=0;" parent="1" edge="1">
          <mxGeometry width="50" height="50" relative="1" as="geometry">
            <mxPoint x="221.71" y="569" as="sourcePoint" />
            <mxPoint x="221.71" y="519" as="targetPoint" />
          </mxGeometry>
        </mxCell>
        <mxCell id="4_c2I07eRdUUCUkFkbuC-50" value="" style="endArrow=none;html=1;rounded=0;" parent="1" edge="1">
          <mxGeometry width="50" height="50" relative="1" as="geometry">
            <mxPoint x="462" y="358.71" as="sourcePoint" />
            <mxPoint x="412" y="358.71" as="targetPoint" />
          </mxGeometry>
        </mxCell>
        <mxCell id="4_c2I07eRdUUCUkFkbuC-51" value="PRESENTA" style="rhombus;whiteSpace=wrap;html=1;" parent="1" vertex="1">
          <mxGeometry x="482" y="439" width="80" height="80" as="geometry" />
        </mxCell>
        <mxCell id="4_c2I07eRdUUCUkFkbuC-52" value="PIATTO" style="rounded=0;whiteSpace=wrap;html=1;" parent="1" vertex="1">
          <mxGeometry x="462" y="569" width="120" height="60" as="geometry" />
        </mxCell>
        <mxCell id="4_c2I07eRdUUCUkFkbuC-54" value="" style="endArrow=none;html=1;rounded=0;exitX=0.5;exitY=0;exitDx=0;exitDy=0;" parent="1" edge="1">
          <mxGeometry width="50" height="50" relative="1" as="geometry">
            <mxPoint x="521.5" y="439" as="sourcePoint" />
            <mxPoint x="521.5" y="389" as="targetPoint" />
          </mxGeometry>
        </mxCell>
        <mxCell id="4_c2I07eRdUUCUkFkbuC-55" value="" style="endArrow=none;html=1;rounded=0;exitX=0.5;exitY=0;exitDx=0;exitDy=0;" parent="1" edge="1">
          <mxGeometry width="50" height="50" relative="1" as="geometry">
            <mxPoint x="521.5" y="569" as="sourcePoint" />
            <mxPoint x="521.5" y="519" as="targetPoint" />
          </mxGeometry>
        </mxCell>
        <mxCell id="4_c2I07eRdUUCUkFkbuC-56" value="COMPOSTO" style="rhombus;whiteSpace=wrap;html=1;" parent="1" vertex="1">
          <mxGeometry x="682" y="559" width="80" height="80" as="geometry" />
        </mxCell>
        <mxCell id="4_c2I07eRdUUCUkFkbuC-57" value="" style="endArrow=none;html=1;rounded=0;" parent="1" edge="1">
          <mxGeometry width="50" height="50" relative="1" as="geometry">
            <mxPoint x="632" y="598.58" as="sourcePoint" />
            <mxPoint x="582" y="598.58" as="targetPoint" />
          </mxGeometry>
        </mxCell>
        <mxCell id="4_c2I07eRdUUCUkFkbuC-58" value="" style="endArrow=none;html=1;rounded=0;" parent="1" edge="1">
          <mxGeometry width="50" height="50" relative="1" as="geometry">
            <mxPoint x="812" y="598.5799999999999" as="sourcePoint" />
            <mxPoint x="762" y="598.5799999999999" as="targetPoint" />
          </mxGeometry>
        </mxCell>
        <mxCell id="4_c2I07eRdUUCUkFkbuC-59" value="" style="endArrow=none;html=1;rounded=0;" parent="1" edge="1">
          <mxGeometry width="50" height="50" relative="1" as="geometry">
            <mxPoint x="862" y="598.58" as="sourcePoint" />
            <mxPoint x="812" y="598.58" as="targetPoint" />
          </mxGeometry>
        </mxCell>
        <mxCell id="4_c2I07eRdUUCUkFkbuC-60" value="" style="endArrow=none;html=1;rounded=0;" parent="1" edge="1">
          <mxGeometry width="50" height="50" relative="1" as="geometry">
            <mxPoint x="682" y="598.58" as="sourcePoint" />
            <mxPoint x="632" y="598.58" as="targetPoint" />
          </mxGeometry>
        </mxCell>
        <mxCell id="4_c2I07eRdUUCUkFkbuC-61" value="INGREDIENTE" style="rounded=0;whiteSpace=wrap;html=1;" parent="1" vertex="1">
          <mxGeometry x="802" y="449" width="120" height="60" as="geometry" />
        </mxCell>
        <mxCell id="4_c2I07eRdUUCUkFkbuC-62" value="" style="endArrow=none;html=1;rounded=0;entryX=0.5;entryY=1;entryDx=0;entryDy=0;" parent="1" target="4_c2I07eRdUUCUkFkbuC-61" edge="1">
          <mxGeometry width="50" height="50" relative="1" as="geometry">
            <mxPoint x="862" y="599" as="sourcePoint" />
            <mxPoint x="842" y="449" as="targetPoint" />
          </mxGeometry>
        </mxCell>
        <mxCell id="4_c2I07eRdUUCUkFkbuC-63" value="" style="endArrow=none;html=1;rounded=0;exitX=0.5;exitY=0;exitDx=0;exitDy=0;" parent="1" edge="1">
          <mxGeometry width="50" height="50" relative="1" as="geometry">
            <mxPoint x="861.5799999999999" y="448" as="sourcePoint" />
            <mxPoint x="861.5799999999999" y="398" as="targetPoint" />
          </mxGeometry>
        </mxCell>
        <mxCell id="4_c2I07eRdUUCUkFkbuC-64" value="SI TROVA" style="rhombus;whiteSpace=wrap;html=1;" parent="1" vertex="1">
          <mxGeometry x="822" y="319" width="80" height="80" as="geometry" />
        </mxCell>
        <mxCell id="4_c2I07eRdUUCUkFkbuC-65" value="" style="endArrow=none;html=1;rounded=0;exitX=0.5;exitY=0;exitDx=0;exitDy=0;" parent="1" edge="1">
          <mxGeometry width="50" height="50" relative="1" as="geometry">
            <mxPoint x="861.5799999999999" y="319" as="sourcePoint" />
            <mxPoint x="861.5799999999999" y="269" as="targetPoint" />
          </mxGeometry>
        </mxCell>
        <mxCell id="4_c2I07eRdUUCUkFkbuC-66" value="MAGAZZINO" style="rounded=0;whiteSpace=wrap;html=1;" parent="1" vertex="1">
          <mxGeometry x="802" y="209" width="120" height="60" as="geometry" />
        </mxCell>
        <mxCell id="4_c2I07eRdUUCUkFkbuC-67" value="" style="ellipse;whiteSpace=wrap;html=1;fillColor=light-dark(#FFFFFF,#FFFFFF);" parent="1" vertex="1">
          <mxGeometry x="172" y="649" width="10" height="10" as="geometry" />
        </mxCell>
        <mxCell id="4_c2I07eRdUUCUkFkbuC-68" value="Matricola" style="text;html=1;whiteSpace=wrap;strokeColor=none;fillColor=none;align=center;verticalAlign=middle;rounded=0;" parent="1" vertex="1">
          <mxGeometry x="152" y="659" width="60" height="30" as="geometry" />
        </mxCell>
        <mxCell id="4_c2I07eRdUUCUkFkbuC-74" value="" style="endArrow=none;html=1;rounded=0;" parent="1" edge="1">
          <mxGeometry width="50" height="50" relative="1" as="geometry">
            <mxPoint x="176.66" y="649" as="sourcePoint" />
            <mxPoint x="176.66" y="629" as="targetPoint" />
          </mxGeometry>
        </mxCell>
        <mxCell id="4_c2I07eRdUUCUkFkbuC-75" value="" style="ellipse;whiteSpace=wrap;html=1;fillColor=light-dark(#FFFFFF,#000000);" parent="1" vertex="1">
          <mxGeometry x="217" y="679" width="10" height="10" as="geometry" />
        </mxCell>
        <mxCell id="4_c2I07eRdUUCUkFkbuC-76" value="Nome" style="text;html=1;whiteSpace=wrap;strokeColor=none;fillColor=none;align=center;verticalAlign=middle;rounded=0;" parent="1" vertex="1">
          <mxGeometry x="192" y="689" width="60" height="30" as="geometry" />
        </mxCell>
        <mxCell id="4_c2I07eRdUUCUkFkbuC-77" value="" style="ellipse;whiteSpace=wrap;html=1;fillColor=light-dark(#FFFFFF,#000000);" parent="1" vertex="1">
          <mxGeometry x="267" y="689" width="10" height="10" as="geometry" />
        </mxCell>
        <mxCell id="4_c2I07eRdUUCUkFkbuC-78" value="Cognome" style="text;html=1;whiteSpace=wrap;strokeColor=none;fillColor=none;align=center;verticalAlign=middle;rounded=0;" parent="1" vertex="1">
          <mxGeometry x="242" y="699" width="60" height="30" as="geometry" />
        </mxCell>
        <mxCell id="4_c2I07eRdUUCUkFkbuC-79" value="" style="endArrow=none;html=1;rounded=0;exitX=0.5;exitY=0;exitDx=0;exitDy=0;entryX=0.5;entryY=1;entryDx=0;entryDy=0;" parent="1" source="4_c2I07eRdUUCUkFkbuC-75" target="4_c2I07eRdUUCUkFkbuC-37" edge="1">
          <mxGeometry width="50" height="50" relative="1" as="geometry">
            <mxPoint x="182" y="659" as="sourcePoint" />
            <mxPoint x="182" y="639" as="targetPoint" />
          </mxGeometry>
        </mxCell>
        <mxCell id="4_c2I07eRdUUCUkFkbuC-80" value="" style="endArrow=none;html=1;rounded=0;exitX=0.5;exitY=0;exitDx=0;exitDy=0;entryX=0.5;entryY=1;entryDx=0;entryDy=0;" parent="1" source="4_c2I07eRdUUCUkFkbuC-77" edge="1">
          <mxGeometry width="50" height="50" relative="1" as="geometry">
            <mxPoint x="271.65999999999997" y="679" as="sourcePoint" />
            <mxPoint x="271.65999999999997" y="629" as="targetPoint" />
          </mxGeometry>
        </mxCell>
        <mxCell id="4_c2I07eRdUUCUkFkbuC-82" value="" style="ellipse;whiteSpace=wrap;html=1;fillColor=light-dark(#FFFFFF,#FFFFFF);" parent="1" vertex="1">
          <mxGeometry x="172" y="289" width="10" height="10" as="geometry" />
        </mxCell>
        <mxCell id="4_c2I07eRdUUCUkFkbuC-83" value="ID_Ordine" style="text;html=1;whiteSpace=wrap;strokeColor=none;fillColor=none;align=center;verticalAlign=middle;rounded=0;" parent="1" vertex="1">
          <mxGeometry x="147" y="259" width="60" height="30" as="geometry" />
        </mxCell>
        <mxCell id="4_c2I07eRdUUCUkFkbuC-86" value="" style="ellipse;whiteSpace=wrap;html=1;fillColor=light-dark(#FFFFFF,#000000);" parent="1" vertex="1">
          <mxGeometry x="227" y="309" width="10" height="10" as="geometry" />
        </mxCell>
        <mxCell id="4_c2I07eRdUUCUkFkbuC-87" value="Data" style="text;html=1;whiteSpace=wrap;strokeColor=none;fillColor=none;align=center;verticalAlign=middle;rounded=0;" parent="1" vertex="1">
          <mxGeometry x="202" y="279" width="60" height="30" as="geometry" />
        </mxCell>
        <mxCell id="4_c2I07eRdUUCUkFkbuC-90" value="" style="endArrow=none;html=1;rounded=0;entryX=0.5;entryY=1;entryDx=0;entryDy=0;" parent="1" target="4_c2I07eRdUUCUkFkbuC-82" edge="1">
          <mxGeometry width="50" height="50" relative="1" as="geometry">
            <mxPoint x="176.76" y="329" as="sourcePoint" />
            <mxPoint x="176.76" y="309" as="targetPoint" />
            <Array as="points">
              <mxPoint x="176.76" y="319" />
            </Array>
          </mxGeometry>
        </mxCell>
        <mxCell id="4_c2I07eRdUUCUkFkbuC-91" value="" style="endArrow=none;html=1;rounded=0;exitX=0.583;exitY=0;exitDx=0;exitDy=0;exitPerimeter=0;entryX=0.5;entryY=1;entryDx=0;entryDy=0;" parent="1" source="4_c2I07eRdUUCUkFkbuC-42" target="4_c2I07eRdUUCUkFkbuC-86" edge="1">
          <mxGeometry width="50" height="50" relative="1" as="geometry">
            <mxPoint x="172" y="329" as="sourcePoint" />
            <mxPoint x="172" y="309" as="targetPoint" />
            <Array as="points" />
          </mxGeometry>
        </mxCell>
        <mxCell id="4_c2I07eRdUUCUkFkbuC-92" value="" style="ellipse;whiteSpace=wrap;html=1;fillColor=light-dark(#FFFFFF,#FFFFFF);" parent="1" vertex="1">
          <mxGeometry x="472" y="649" width="10" height="10" as="geometry" />
        </mxCell>
        <mxCell id="4_c2I07eRdUUCUkFkbuC-93" value="Nome" style="text;html=1;whiteSpace=wrap;strokeColor=none;fillColor=none;align=center;verticalAlign=middle;rounded=0;" parent="1" vertex="1">
          <mxGeometry x="447" y="659" width="60" height="30" as="geometry" />
        </mxCell>
        <mxCell id="4_c2I07eRdUUCUkFkbuC-94" value="" style="ellipse;whiteSpace=wrap;html=1;fillColor=light-dark(#FFFFFF,#000000);" parent="1" vertex="1">
          <mxGeometry x="517" y="679" width="10" height="10" as="geometry" />
        </mxCell>
        <mxCell id="4_c2I07eRdUUCUkFkbuC-95" value="Categoria" style="text;html=1;whiteSpace=wrap;strokeColor=none;fillColor=none;align=center;verticalAlign=middle;rounded=0;" parent="1" vertex="1">
          <mxGeometry x="492" y="689" width="60" height="30" as="geometry" />
        </mxCell>
        <mxCell id="4_c2I07eRdUUCUkFkbuC-96" value="" style="ellipse;whiteSpace=wrap;html=1;fillColor=light-dark(#FFFFFF,#000000);" parent="1" vertex="1">
          <mxGeometry x="567" y="699" width="10" height="10" as="geometry" />
        </mxCell>
        <mxCell id="4_c2I07eRdUUCUkFkbuC-97" value="Costo" style="text;html=1;whiteSpace=wrap;strokeColor=none;fillColor=none;align=center;verticalAlign=middle;rounded=0;" parent="1" vertex="1">
          <mxGeometry x="542" y="709" width="60" height="30" as="geometry" />
        </mxCell>
        <mxCell id="4_c2I07eRdUUCUkFkbuC-98" value="" style="endArrow=none;html=1;rounded=0;" parent="1" edge="1">
          <mxGeometry width="50" height="50" relative="1" as="geometry">
            <mxPoint x="476.71" y="649" as="sourcePoint" />
            <mxPoint x="476.71" y="629" as="targetPoint" />
          </mxGeometry>
        </mxCell>
        <mxCell id="4_c2I07eRdUUCUkFkbuC-102" value="" style="endArrow=none;html=1;rounded=0;exitX=0.5;exitY=0;exitDx=0;exitDy=0;entryX=0.5;entryY=1;entryDx=0;entryDy=0;" parent="1" edge="1">
          <mxGeometry width="50" height="50" relative="1" as="geometry">
            <mxPoint x="522" y="679" as="sourcePoint" />
            <mxPoint x="522" y="629" as="targetPoint" />
          </mxGeometry>
        </mxCell>
        <mxCell id="4_c2I07eRdUUCUkFkbuC-103" value="" style="endArrow=none;html=1;rounded=0;exitX=0.5;exitY=0;exitDx=0;exitDy=0;entryX=0.5;entryY=1;entryDx=0;entryDy=0;" parent="1" source="4_c2I07eRdUUCUkFkbuC-96" edge="1">
          <mxGeometry width="50" height="50" relative="1" as="geometry">
            <mxPoint x="572.05" y="689" as="sourcePoint" />
            <mxPoint x="571.71" y="629" as="targetPoint" />
          </mxGeometry>
        </mxCell>
        <mxCell id="4_c2I07eRdUUCUkFkbuC-107" value="" style="endArrow=none;html=1;rounded=0;" parent="1" edge="1">
          <mxGeometry width="50" height="50" relative="1" as="geometry">
            <mxPoint x="922" y="463.84" as="sourcePoint" />
            <mxPoint x="942" y="463.84" as="targetPoint" />
          </mxGeometry>
        </mxCell>
        <mxCell id="4_c2I07eRdUUCUkFkbuC-108" value="" style="ellipse;whiteSpace=wrap;html=1;fillColor=light-dark(#FFFFFF,#FFFFFF);" parent="1" vertex="1">
          <mxGeometry x="942" y="459" width="10" height="10" as="geometry" />
        </mxCell>
        <mxCell id="4_c2I07eRdUUCUkFkbuC-109" value="" style="ellipse;whiteSpace=wrap;html=1;fillColor=light-dark(#FFFFFF,#000000);" parent="1" vertex="1">
          <mxGeometry x="942" y="489" width="10" height="10" as="geometry" />
        </mxCell>
        <mxCell id="4_c2I07eRdUUCUkFkbuC-110" value="" style="endArrow=none;html=1;rounded=0;" parent="1" edge="1">
          <mxGeometry width="50" height="50" relative="1" as="geometry">
            <mxPoint x="922" y="493.84000000000003" as="sourcePoint" />
            <mxPoint x="942" y="493.84000000000003" as="targetPoint" />
          </mxGeometry>
        </mxCell>
        <mxCell id="4_c2I07eRdUUCUkFkbuC-111" value="Costo" style="text;html=1;whiteSpace=wrap;strokeColor=none;fillColor=none;align=center;verticalAlign=middle;rounded=0;" parent="1" vertex="1">
          <mxGeometry x="952" y="479" width="60" height="30" as="geometry" />
        </mxCell>
        <mxCell id="4_c2I07eRdUUCUkFkbuC-112" value="Nome" style="text;html=1;whiteSpace=wrap;strokeColor=none;fillColor=none;align=center;verticalAlign=middle;rounded=0;" parent="1" vertex="1">
          <mxGeometry x="952" y="449" width="60" height="30" as="geometry" />
        </mxCell>
        <mxCell id="4_c2I07eRdUUCUkFkbuC-113" value="" style="ellipse;whiteSpace=wrap;html=1;fillColor=light-dark(#FFFFFF,#FFFFFF);" parent="1" vertex="1">
          <mxGeometry x="942" y="214" width="10" height="10" as="geometry" />
        </mxCell>
        <mxCell id="4_c2I07eRdUUCUkFkbuC-114" value="" style="ellipse;whiteSpace=wrap;html=1;fillColor=light-dark(#FFFFFF,#000000);" parent="1" vertex="1">
          <mxGeometry x="942" y="234" width="10" height="10" as="geometry" />
        </mxCell>
        <mxCell id="4_c2I07eRdUUCUkFkbuC-115" value="Capienza" style="text;html=1;whiteSpace=wrap;strokeColor=none;fillColor=none;align=center;verticalAlign=middle;rounded=0;" parent="1" vertex="1">
          <mxGeometry x="952" y="224" width="60" height="30" as="geometry" />
        </mxCell>
        <mxCell id="4_c2I07eRdUUCUkFkbuC-116" value="Posizione" style="text;html=1;whiteSpace=wrap;strokeColor=none;fillColor=none;align=center;verticalAlign=middle;rounded=0;" parent="1" vertex="1">
          <mxGeometry x="952" y="204" width="60" height="30" as="geometry" />
        </mxCell>
        <mxCell id="4_c2I07eRdUUCUkFkbuC-117" value="" style="ellipse;whiteSpace=wrap;html=1;fillColor=light-dark(#FFFFFF,#000000);" parent="1" vertex="1">
          <mxGeometry x="942" y="234" width="10" height="10" as="geometry" />
        </mxCell>
        <mxCell id="4_c2I07eRdUUCUkFkbuC-118" value="" style="ellipse;whiteSpace=wrap;html=1;fillColor=light-dark(#FFFFFF,#000000);" parent="1" vertex="1">
          <mxGeometry x="942" y="254" width="10" height="10" as="geometry" />
        </mxCell>
        <mxCell id="4_c2I07eRdUUCUkFkbuC-119" value="Metri quadri" style="text;html=1;whiteSpace=wrap;strokeColor=none;fillColor=none;align=center;verticalAlign=middle;rounded=0;" parent="1" vertex="1">
          <mxGeometry x="952" y="244" width="70" height="30" as="geometry" />
        </mxCell>
        <mxCell id="4_c2I07eRdUUCUkFkbuC-120" value="" style="endArrow=none;html=1;rounded=0;" parent="1" edge="1">
          <mxGeometry width="50" height="50" relative="1" as="geometry">
            <mxPoint x="922" y="258.77" as="sourcePoint" />
            <mxPoint x="942" y="258.77" as="targetPoint" />
          </mxGeometry>
        </mxCell>
        <mxCell id="4_c2I07eRdUUCUkFkbuC-121" value="" style="endArrow=none;html=1;rounded=0;" parent="1" edge="1">
          <mxGeometry width="50" height="50" relative="1" as="geometry">
            <mxPoint x="922" y="238.77" as="sourcePoint" />
            <mxPoint x="942" y="238.77" as="targetPoint" />
          </mxGeometry>
        </mxCell>
        <mxCell id="4_c2I07eRdUUCUkFkbuC-123" value="" style="endArrow=none;html=1;rounded=0;" parent="1" edge="1">
          <mxGeometry width="50" height="50" relative="1" as="geometry">
            <mxPoint x="922" y="218.77" as="sourcePoint" />
            <mxPoint x="942" y="218.77" as="targetPoint" />
          </mxGeometry>
        </mxCell>
        <mxCell id="4_c2I07eRdUUCUkFkbuC-124" value="(1;N)" style="text;html=1;whiteSpace=wrap;strokeColor=none;fillColor=none;align=center;verticalAlign=middle;rounded=0;" parent="1" vertex="1">
          <mxGeometry x="212" y="539" width="60" height="30" as="geometry" />
        </mxCell>
        <mxCell id="4_c2I07eRdUUCUkFkbuC-125" value="(N;N)" style="text;html=1;whiteSpace=wrap;strokeColor=none;fillColor=none;align=center;verticalAlign=middle;rounded=0;" parent="1" vertex="1">
          <mxGeometry x="577" y="569" width="60" height="30" as="geometry" />
        </mxCell>
        <mxCell id="4_c2I07eRdUUCUkFkbuC-126" value="(N;N)" style="text;html=1;whiteSpace=wrap;strokeColor=none;fillColor=none;align=center;verticalAlign=middle;rounded=0;" parent="1" vertex="1">
          <mxGeometry x="862" y="419" width="60" height="30" as="geometry" />
        </mxCell>
        <mxCell id="4_c2I07eRdUUCUkFkbuC-127" value="(1;N)" style="text;html=1;whiteSpace=wrap;strokeColor=none;fillColor=none;align=center;verticalAlign=middle;rounded=0;" parent="1" vertex="1">
          <mxGeometry x="517" y="389" width="60" height="30" as="geometry" />
        </mxCell>
        <mxCell id="4_c2I07eRdUUCUkFkbuC-128" value="(1;N)" style="text;html=1;whiteSpace=wrap;strokeColor=none;fillColor=none;align=center;verticalAlign=middle;rounded=0;" parent="1" vertex="1">
          <mxGeometry x="517" y="160" width="60" height="30" as="geometry" />
        </mxCell>
        <mxCell id="4_c2I07eRdUUCUkFkbuC-129" value="(N;1)" style="text;html=1;whiteSpace=wrap;strokeColor=none;fillColor=none;align=center;verticalAlign=middle;rounded=0;" parent="1" vertex="1">
          <mxGeometry x="277" y="329" width="60" height="30" as="geometry" />
        </mxCell>
      </root>
    </mxGraphModel>
  </diagram>
</mxfile>
